<?xml version="1.0" encoding="utf-8"?>
<!-- Generator: Adobe Illustrator 23.0.6, SVG Export Plug-In . SVG Version: 6.00 Build 0)  -->
<svg version="1.1" id="Calque_1" xmlns="http://www.w3.org/2000/svg" xmlns:xlink="http://www.w3.org/1999/xlink" x="0px" y="0px"
	 viewBox="0 0 43.4 58.6" style="enable-background:new 0 0 43.4 58.6;" xml:space="preserve">
<style type="text/css">
	.st0{fill:#161615;}
	.st1{clip-path:url(#SVGID_2_);}
	.st2{fill:url(#Rectangle_179_1_);}
	.st3{fill:#92B506;}
	.st4{fill:#02689F;}
	.st5{fill:#B8C302;}
	.st6{fill:#1A8D86;}
	.st7{fill:#75AE1C;}
	.st8{fill:#4B9132;}
	.st9{fill:#039B6B;}
	.st10{fill:#027EB1;}
	.st11{fill:#233D73;}
	.st12{fill:#015482;}
	.st13{fill:#01754B;}
	.st14{fill:#DBD803;}
	.st15{fill:#576A55;}
	.st16{fill:#FBFCFB;}
	.st17{fill:#01736A;}
	.st18{fill:#4C4744;}
	.st19{fill:#F17B38;}
	.st20{fill:#FAE400;}
	.st21{fill:#92C512;}
	.st22{fill:#5B698D;}
	.st23{fill:#8B785F;}
	.st24{fill:#1412A4;}
	.st25{fill:#F8E300;}
	.st26{fill:#1E4B9D;}
	.st27{fill:#F4EA3C;}
	.st28{fill:#F5EA3C;}
	.st29{fill:#F9EE39;}
	.st30{fill:#F7EB3B;}
	.st31{fill:#F6EB3C;}
	.st32{fill:#F9EE38;}
	.st33{fill:#F9EE41;}
	.st34{fill:#006462;}
	.st35{fill:#FFE371;}
	.st36{fill:none;}
	.st37{fill:#FFFFFF;}
	.st38{fill:#008461;}
	.st39{fill:#AF0F25;}
	.st40{fill:#91392C;}
	.st41{fill:#FFF77C;}
	.st42{fill:#F3931C;}
	.st43{fill:#EC5B6B;}
</style>
<g>
	<path class="st37" d="M29.4,24.9c0,13.7-6.5,24.9-14.6,24.9S0.2,38.6,0.2,24.9S6.7,0,14.8,0S29.4,11.1,29.4,24.9"/>
	<path class="st38" d="M14.8,0C6.7,0,0.2,11.2,0.2,24.9c0,2.9,0.3,5.7,0.8,8.3c1.2,0.1,3.3,2,4.2,2.6c4.5,3,9.4,2.7,13.3,1.5
		c2.1-1,5-2,6.1-4.7c-7.9-2.1-13.4-0.3-15,0.3c0.9,1.4,3.1,2.2,7.2,2.1c2-0.1,4.1,0,4.1,0s-9,2.2-12.2-0.6
		c-1.3-1.1-2.9-7.2,7.7-11.9l0.6-0.2c-4.5,2.1-9.1,7.3-7.5,10.3c0.8-0.6,3.1-1.8,7.9-1.7c4.1,0.1,6.3,0.9,7.3,1.4
		c0.2-0.6,0.4-1.2,0.4-1.9c0.1-2.4-1.4-4.4-6.6-8.5c-1.4-1.1,1.1-3.8,1.3-2.8c0.8,5.3,5.9,6.1,7.6,9.6c0.8,1.7-0.1,3.5-1.6,5.2
		c-0.2,0.2-0.4,0.5-0.7,0.8c-2.3,2.2-6.1,5.8-10.9,6c-2.1,0.1-7.2-2.8-11.8-2.6c2.6,7,7.2,11.6,12.4,11.6c8.1,0,14.6-11.1,14.6-24.9
		C29.4,11.2,22.9,0,14.8,0"/>
	<path class="st39" d="M31.6,33.5H33c1,0,1.3-1.1,1.3-2.1c0-1.2-0.5-2-1.3-2h-2v7.2h0.6V33.5z M31.6,30.2h1.2c0.5,0,0.9,0.3,0.9,1.2
		c0,1-0.4,1.3-0.9,1.3h-1.2"/>
	<path class="st39" d="M35.6,32.9c0-0.4,0.1-1,0.7-1c0.5,0,0.8,0.3,0.8,0.9c0,0.5-0.2,0.6-0.3,0.6l-0.9,0.2c-0.9,0.2-1,1.2-1,1.6
		c0,0.9,0.4,1.5,1,1.5c0.6,0,0.9-0.5,1.2-0.8c0,0.4,0.1,0.8,0.6,0.8c0.1,0,0.2-0.1,0.3-0.1v-0.6c-0.1,0-0.1,0-0.2,0
		c-0.1,0-0.2-0.1-0.2-0.3v-3c0-1.3-0.9-1.5-1.2-1.5c-0.8,0-1.3,0.5-1.3,1.7L35.6,32.9z M37.1,34.8c0,0.7-0.5,1.2-1,1.2
		c-0.4,0-0.6-0.3-0.6-0.9c0-0.7,0.4-0.8,0.7-0.9c0.7-0.1,0.8-0.2,0.9-0.3"/>
	<path class="st39" d="M39.3,36.6h-0.5v-5.2h0.5v0.9h0c0.2-0.6,0.5-1,0.9-1c0.1,0,0.1,0,0.1,0v0.9h-0.2c-0.5,0-0.8,0.6-0.8,1.4"/>
	<path class="st39" d="M42.9,33.1c-0.1-0.7-0.3-1.1-0.8-1.1c-0.7,0-0.9,1-0.9,2c0,0.9,0.1,2,0.9,2c0.4,0,0.7-0.4,0.8-1.2h0.5
		c-0.1,0.8-0.4,2-1.3,2c-0.9,0-1.4-1.1-1.4-2.6c0-1.6,0.5-2.9,1.5-2.9c0.8,0,1.2,1,1.2,1.9"/>
	<path class="st39" d="M30.7,43h-0.4v-2.2c0-0.6-0.1-0.9-0.5-0.9c-0.2,0-0.6,0.2-0.6,1.2V43h-0.4v-3.5h0.3V40h0
		c0.1-0.2,0.3-0.6,0.6-0.6c0.3,0,0.7,0.2,0.7,1.2"/>
	<path class="st39" d="M31.9,40.5c0-0.3,0.1-0.7,0.5-0.7c0.3,0,0.5,0.2,0.5,0.6c0,0.3-0.1,0.4-0.2,0.4L32.1,41
		c-0.6,0.1-0.6,0.8-0.6,1.1c0,0.6,0.3,1,0.7,1c0.4,0,0.6-0.3,0.8-0.6c0,0.3,0.1,0.5,0.4,0.5c0.1,0,0.1,0,0.2-0.1v-0.4
		c0,0-0.1,0-0.1,0c-0.1,0-0.1-0.1-0.1-0.2v-2c0-0.9-0.6-1-0.8-1c-0.5,0-0.9,0.3-0.9,1.2H31.9z M32.9,41.8c0,0.5-0.3,0.8-0.7,0.8
		c-0.3,0-0.4-0.2-0.4-0.6c0-0.4,0.3-0.5,0.5-0.6c0.4-0.1,0.5-0.1,0.6-0.2"/>
	<path class="st39" d="M34.7,40v2.3c0,0.3,0.1,0.3,0.2,0.3h0.1V43c-0.1,0-0.2,0-0.3,0c-0.4,0-0.4-0.3-0.4-0.7V40h-0.3v-0.5h0.3v-1
		h0.4v1h0.3V40"/>
	<path class="st39" d="M37.2,43v-0.5l0,0c-0.2,0.4-0.3,0.6-0.7,0.6c-0.3,0-0.7-0.2-0.7-1.1v-2.5h0.4v2.3c0,0.6,0.2,0.8,0.4,0.8
		c0.5,0,0.6-0.7,0.6-1.2v-1.9h0.4V43"/>
	<path class="st39" d="M38.9,43h-0.4v-3.5h0.3v0.6h0c0.1-0.4,0.3-0.7,0.6-0.7c0,0,0.1,0,0.1,0V40h-0.1c-0.3,0-0.5,0.4-0.5,0.9"/>
	<path class="st39" d="M41.7,41.9c0,0.3-0.2,0.7-0.5,0.7c-0.4,0-0.6-0.4-0.6-1.2h1.6c0-1.2-0.3-2-0.9-2c-0.7,0-1,0.9-1,2
		c0,1,0.4,1.8,1,1.8c0.3,0,0.5-0.1,0.6-0.2c0.3-0.3,0.4-0.8,0.4-1H41.7z M40.5,41c0-0.5,0.3-1.1,0.6-1.1c0.4,0,0.6,0.5,0.6,1.1"/>
	<rect x="42.9" y="38.2" class="st39" width="0.4" height="4.8"/>
	<path class="st39" d="M26.3,49.4H26v-3.5h0.3v0.6h0c0.1-0.4,0.3-0.7,0.6-0.7c0,0,0.1,0,0.1,0v0.6h-0.1c-0.3,0-0.5,0.4-0.5,0.9"/>
	<path class="st39" d="M29.2,48.3c0,0.3-0.2,0.7-0.5,0.7c-0.4,0-0.6-0.4-0.6-1.2h1.6c0-1.2-0.3-2-0.9-2c-0.7,0-1,0.9-1,2
		c0,1,0.4,1.7,1,1.7c0.3,0,0.5-0.1,0.6-0.2c0.3-0.3,0.4-0.8,0.4-1H29.2z M29.3,44.5h-0.4l-0.4,0.9h0.3L29.3,44.5z M28.1,47.4
		c0-0.5,0.3-1.1,0.6-1.1c0.4,0,0.6,0.5,0.6,1.1"/>
	<path class="st39" d="M32.3,45.9h-0.3v0.5h0c-0.1-0.2-0.2-0.6-0.6-0.6c-0.6,0-0.9,0.8-0.9,1.7c0,0.8,0.2,2,0.9,2
		c0.3,0,0.5-0.2,0.6-0.5v0h0v0.1c0,0.4,0,1.2-0.6,1.2c-0.1,0-0.4,0-0.5-0.6h-0.4c0.1,0.9,0.6,1,0.8,1c1,0,1-1.3,1-1.7V45.9z
		 M30.8,47.6c0-0.5,0-1.3,0.6-1.3c0.5,0,0.6,0.9,0.6,1.5c0,0.9-0.4,1.2-0.6,1.2C31,49,30.8,48.4,30.8,47.6"/>
	<path class="st39" d="M33.3,44.6h0.4v0.7h-0.4V44.6z M33.7,49.4h-0.4v-3.5h0.4"/>
	<path class="st39" d="M34.5,47.6c0,0.9,0.3,1.8,1,1.8c0.7,0,1-0.9,1-1.8c0-0.9-0.3-1.8-1-1.8C34.9,45.8,34.5,46.7,34.5,47.6
		 M34.9,47.6c0-0.5,0.1-1.3,0.6-1.3c0.5,0,0.6,0.9,0.6,1.3c0,0.5-0.1,1.3-0.6,1.3C35,49,34.9,48.1,34.9,47.6"/>
	<path class="st39" d="M39.2,49.4h-0.4v-2.2c0-0.6-0.1-0.9-0.5-0.9c-0.2,0-0.6,0.2-0.6,1.2v1.9h-0.4v-3.5h0.3v0.5h0
		c0.1-0.2,0.3-0.6,0.6-0.6c0.3,0,0.7,0.2,0.7,1.2"/>
	<path class="st39" d="M40.5,47c0-0.3,0.1-0.7,0.5-0.7c0.3,0,0.5,0.2,0.5,0.6c0,0.3-0.1,0.4-0.2,0.4l-0.6,0.1
		c-0.6,0.1-0.7,0.8-0.7,1.1c0,0.6,0.3,1,0.7,1c0.4,0,0.6-0.3,0.8-0.6c0,0.3,0.1,0.5,0.4,0.5c0.1,0,0.1,0,0.2-0.1V49c0,0-0.1,0-0.1,0
		c-0.1,0-0.1-0.1-0.1-0.2v-2c0-0.9-0.6-1-0.8-1c-0.5,0-0.9,0.3-0.9,1.2H40.5z M41.5,48.2c0,0.5-0.3,0.8-0.7,0.8
		c-0.3,0-0.4-0.2-0.4-0.6c0-0.4,0.3-0.5,0.5-0.6c0.4-0.1,0.5-0.1,0.6-0.2"/>
	<rect x="42.9" y="44.6" class="st39" width="0.4" height="4.8"/>
	<path class="st39" d="M2.3,52.7H1.9v2.1l0,0.1c-0.1-0.2-0.3-0.7-0.8-0.7c-0.7,0-1.1,0.9-1.1,2.1c0,1,0.3,2.4,1.1,2.4
		c0.3,0,0.5-0.1,0.7-0.7h0v0.6h0.4V52.7z M0.4,56.4c0-0.5,0-1.6,0.7-1.6c0.6,0,0.7,1.1,0.7,1.8c0,1.1-0.4,1.4-0.7,1.4
		C0.7,58,0.4,57.3,0.4,56.4"/>
	<path class="st39" d="M4.5,57.2c0,0.3-0.3,0.8-0.7,0.8c-0.5,0-0.7-0.5-0.7-1.4H5c0-1.5-0.4-2.5-1.1-2.5c-0.9,0-1.2,1-1.2,2.4
		c0,1.2,0.4,2.1,1.2,2.1c0.4,0,0.6-0.2,0.7-0.3c0.3-0.4,0.4-1,0.5-1.2H4.5z M3.1,56c0-0.7,0.3-1.3,0.7-1.3c0.5,0,0.7,0.6,0.7,1.3"/>
	<path class="st39" d="M6.8,55.5c0-0.3-0.1-0.7-0.6-0.7c-0.1,0-0.5,0.1-0.5,0.6c0,0.4,0.1,0.4,0.5,0.6l0.4,0.2
		c0.5,0.2,0.7,0.5,0.7,1.1c0,0.9-0.4,1.4-1,1.4c-1,0-1.1-1-1.1-1.5h0.4c0,0.3,0.1,0.9,0.7,0.9c0.3,0,0.6-0.2,0.6-0.7
		c0-0.3-0.1-0.5-0.5-0.6l-0.5-0.2c-0.4-0.1-0.6-0.4-0.6-1c0-0.9,0.5-1.4,1-1.4c0.9,0,1,1.1,1,1.3"/>
	<path class="st39" d="M11.9,58.5v-3.4c0-0.2,0-0.9,0-1.5h0l-1,4.9h-0.5l-1-4.9h0c0,0.5,0,1.3,0,1.4v3.4H9v-5.8h0.7l1,4.9h0l1-4.9
		h0.7v5.8"/>
	<path class="st39" d="M12.8,56.4c0,1.1,0.4,2.2,1.2,2.2c0.8,0,1.2-1.1,1.2-2.2c0-1.1-0.4-2.2-1.2-2.2
		C13.1,54.1,12.8,55.3,12.8,56.4 M13.2,56.4c0-0.6,0.1-1.6,0.7-1.6c0.6,0,0.7,1.1,0.7,1.6c0,0.6-0.1,1.6-0.7,1.6
		C13.3,58,13.2,56.9,13.2,56.4"/>
	<path class="st39" d="M17.6,58.5h-0.4v-2.6c0-0.7-0.1-1.1-0.6-1.1c-0.2,0-0.7,0.3-0.7,1.4v2.3h-0.4v-4.2h0.4v0.6h0
		c0.1-0.2,0.3-0.7,0.8-0.7c0.4,0,0.9,0.3,0.9,1.5"/>
	<path class="st39" d="M18.6,54.9v2.8c0,0.3,0.2,0.3,0.3,0.3h0.2v0.6c-0.2,0-0.3,0.1-0.3,0.1c-0.4,0-0.5-0.4-0.5-0.9v-2.8h-0.4v-0.6
		h0.4v-1.2h0.4v1.2h0.4v0.6"/>
	<path class="st39" d="M20.8,55.5c0-0.3-0.1-0.7-0.6-0.7c-0.1,0-0.5,0.1-0.5,0.6c0,0.4,0.1,0.4,0.5,0.6l0.4,0.2
		c0.5,0.2,0.7,0.5,0.7,1.1c0,0.9-0.4,1.4-1,1.4c-1,0-1.1-1-1.1-1.5h0.4c0,0.3,0.1,0.9,0.7,0.9c0.3,0,0.6-0.2,0.6-0.7
		c0-0.3-0.1-0.5-0.5-0.6l-0.5-0.2c-0.4-0.1-0.6-0.4-0.6-1c0-0.9,0.5-1.4,1-1.4c0.9,0,1,1.1,1,1.3"/>
	<path class="st39" d="M25.1,52.7h-0.4v2.1l0,0.1c-0.1-0.2-0.3-0.7-0.8-0.7c-0.7,0-1.1,0.9-1.1,2.1c0,1,0.3,2.4,1.1,2.4
		c0.3,0,0.5-0.1,0.7-0.7h0v0.6h0.4V52.7z M23.2,56.4c0-0.5,0-1.6,0.7-1.6c0.6,0,0.7,1.1,0.7,1.8c0,1.1-0.4,1.4-0.7,1.4
		C23.4,58,23.2,57.3,23.2,56.4"/>
	<rect x="25.5" y="52.7" class="st39" width="0.4" height="2.1"/>
	<path class="st39" d="M28.4,56.8l0.4,1.7h0.5L28,52.7h-0.5l-1.3,5.8h0.5l0.4-1.7H28.4z M27.1,56.1l0.6-2.6h0l0.5,2.6"/>
	<path class="st39" d="M30,58.5h-0.4v-4.2H30V55h0c0.2-0.5,0.4-0.8,0.7-0.8c0.1,0,0.1,0,0.1,0v0.7h-0.2c-0.4,0-0.7,0.5-0.7,1.1"/>
	<path class="st39" d="M33.1,52.7h-0.4v2.1l0,0.1c-0.1-0.2-0.3-0.7-0.8-0.7c-0.7,0-1.1,0.9-1.1,2.1c0,1,0.3,2.4,1.1,2.4
		c0.3,0,0.6-0.1,0.7-0.7h0v0.6h0.4V52.7z M31.3,56.4c0-0.5,0-1.6,0.7-1.6c0.6,0,0.7,1.1,0.7,1.8c0,1.1-0.4,1.4-0.7,1.4
		C31.5,58,31.3,57.3,31.3,56.4"/>
	<path class="st39" d="M35.4,57.2c0,0.3-0.3,0.8-0.7,0.8c-0.5,0-0.7-0.5-0.7-1.4h1.9c0-1.5-0.4-2.5-1.1-2.5c-0.9,0-1.2,1-1.2,2.4
		c0,1.2,0.4,2.1,1.2,2.1c0.4,0,0.6-0.2,0.7-0.3c0.3-0.4,0.4-1,0.5-1.2H35.4z M34.5,53.7h0.3l-0.4-1.1h-0.5L34.5,53.7z M33.9,56
		c0-0.7,0.3-1.3,0.7-1.3c0.5,0,0.7,0.6,0.7,1.3"/>
	<path class="st39" d="M37.8,55.7c-0.1-0.6-0.2-0.9-0.6-0.9c-0.5,0-0.7,0.8-0.7,1.6c0,0.7,0.1,1.6,0.7,1.6c0.3,0,0.5-0.4,0.6-1h0.4
		c0,0.7-0.3,1.6-1.1,1.6c-0.7,0-1.2-0.9-1.2-2.1c0-1.3,0.4-2.4,1.2-2.4c0.7,0,0.9,0.8,1,1.5"/>
	<path class="st39" d="M40.6,58.5h-0.4v-2.8c0-0.6-0.1-1-0.5-1c-0.4,0-0.7,0.3-0.7,1.4v2.3h-0.4v-5.8H39v2.1h0
		c0.1-0.3,0.3-0.7,0.8-0.7c0.4,0,0.9,0.3,0.9,1.5"/>
	<path class="st39" d="M42.9,57.2c0,0.3-0.3,0.8-0.7,0.8c-0.5,0-0.7-0.5-0.7-1.4h1.9c0-1.5-0.4-2.5-1.1-2.5c-0.9,0-1.2,1-1.2,2.4
		c0,1.2,0.4,2.1,1.2,2.1c0.4,0,0.6-0.2,0.7-0.3c0.3-0.4,0.4-1,0.5-1.2H42.9z M41.5,56c0-0.7,0.3-1.3,0.7-1.3c0.5,0,0.7,0.6,0.7,1.3"
		/>
	<path class="st37" d="M11.4,4.1c0,0,0.1,0,0.1,0c0.1,0,0.1,0,0.2,0c0,0,0,0,0,0c0,0,0.1,0.1,0.1,0.1c0,0,0.1,0,0.1,0
		c0,0,0.1,0,0.1,0c0,0,0,0.1,0,0.1h0c0,0,0.1,0,0.1,0c0,0,0,0,0,0.1h-0.1c0,0.1-0.1,0.1-0.1,0.2c0,0.1,0.1,0.1,0.1,0.2
		c0,0.1,0,0.1,0,0.1C12,5,11.9,5,11.9,5.1h0c0,0,0,0,0,0c0,0,0.1,0,0.1,0h0c0,0,0,0,0,0c-0.1,0.1,0,0.2,0,0.3c-0.1,0-0.2,0-0.2,0
		c0,0-0.1,0.1-0.1,0.1c0,0-0.1,0-0.1,0c0,0,0,0.1,0,0.1h-0.1c0,0.1,0,0.2,0,0.2c0,0.1,0.2,0.1,0.2,0.2c0,0-0.2,0.1-0.2,0.1h-0.1
		c0,0-0.1-0.1-0.1-0.1c0,0.1,0,0.2-0.1,0.2c0-0.1-0.1-0.2-0.2-0.2c-0.1,0.3,0.2,0.2,0.2,0.4c-0.1,0-0.2,0-0.2,0.1
		c0.1,0,0.2,0.1,0.1,0.1c0,0-0.1,0.1-0.1,0.1c0,0.1,0.1,0.1,0.1,0.2h0v0c0,0,0.1-0.1,0.1,0c0,0,0.2,0.2,0.2,0.2v0c0,0,0-0.1,0.1-0.2
		c0,0,0,0,0.1-0.1c0,0,0-0.1,0-0.1c0,0,0.1,0,0.1,0c0,0,0,0,0,0c0.2,0,0.2-0.1,0.4-0.1c0,0,0,0,0,0c0-0.1,0.1-0.1,0.2-0.1
		c0.1-0.1,0.2-0.2,0.3-0.2c0,0,0-0.1,0.1-0.1c0.1,0,0.1,0,0.2,0c0,0,0.1,0,0.1-0.1c0,0,0.1,0,0.1,0c0,0,0-0.1,0-0.1c0,0,0.1,0,0.1,0
		c0,0,0-0.1,0-0.1c0,0,0.1,0,0.1,0h0.1c0-0.1,0.2-0.1,0.2-0.1c0.1-0.1,0.1-0.1,0.2-0.2c0,0,0.1,0,0.1,0c0.1,0,0.5,0.4,0.5,0.4
		c0,0.1,0,0.2,0,0.2h0.1v0h0c0,0-0.1,0-0.1,0.1c0,0,0.1,0.2,0.1,0.2v0c-0.1,0-0.1,0-0.2,0c0,0.1,0,0.2,0,0.3h-0.2c0,0,0,0.1,0,0.2
		c-0.1,0.1-0.2,0.1-0.2,0c0,0,0,0,0,0v0c-0.1,0-0.1,0.2-0.1,0.3c-0.1,0-0.1,0-0.2,0c-0.1,0-0.2,0-0.2,0.1c0.1,0,0.1,0.1,0.1,0.2h0
		c0,0-0.1,0-0.1,0c0,0,0,0.1,0,0.1c0,0-0.2,0.2-0.2,0.2c0,0-0.1,0-0.1,0c0,0-0.1,0.1-0.1,0c0,0,0,0-0.1,0c0,0.1-0.1,0.2,0,0.2
		c0,0.1,0.1,0,0.2,0.1c0.1,0,0.1,0.1,0.2,0.1c0.1,0,0.2,0,0.3,0.1c0.1,0,0.1,0,0.2,0c0,0,0.1,0,0.1,0c0.1,0,0.2,0,0.2,0.1
		c0,0,0.1,0,0.1,0.1c0,0,0.1,0,0.1,0c0,0,0.1,0,0.1,0c0.1,0,0.1,0,0.2,0c0,0,0,0.1,0,0.1h0.1c0,0,0.1,0,0.1,0c0.1,0,0.1,0.1,0.2,0.1
		c0,0,0.1,0,0.1,0.1c0.1,0,0.2,0.1,0.2,0.1c0,0,0.1,0,0.1,0c0,0,0,0.1,0,0.1h0.1c0,0,0.1,0,0.1,0c0.2,0,0.1,0.1,0.2,0.2
		C16,9.2,16,9.2,16,9.3c0,0,0,0.1,0,0.1c0,0.1,0,0.1,0,0.2c0,0.1,0,0.1,0,0.2c0,0,0,0-0.1,0.1c-0.1,0-0.1,0-0.2,0
		c-0.1,0-0.1,0.1-0.2,0.1c-0.1,0-0.1-0.1-0.1-0.1c-0.1,0-0.2,0-0.2-0.2c0,0-0.1,0-0.1,0c-0.1,0.1,0,0.1,0,0.2h0
		c-0.1,0-0.3,0.1-0.4,0c0,0-0.1-0.1-0.1-0.1c-0.1,0-0.1-0.1-0.2-0.1c-0.1-0.1,0-0.1-0.1-0.2c0,0,0,0-0.1,0c0,0,0,0-0.1,0v0
		C14.1,9.4,14,9.4,14,9.4c-0.1-0.2-0.2-0.1-0.2-0.3c0,0-0.1,0-0.1,0c-0.1,0-0.1,0-0.2,0c0,0.1,0,0.2-0.1,0.2v0h0
		c0-0.1,0-0.2,0.1-0.2c0,0,0-0.1-0.1-0.1c-0.1,0.2-0.2,0-0.3,0c-0.1,0-0.1,0-0.1,0.1c-0.1,0-0.2-0.1-0.2-0.2c-0.1,0-0.1,0.1-0.2,0.1
		v0h0c0,0,0-0.1,0-0.1v0c-0.1,0-0.1,0.1-0.2,0c0,0,0,0-0.1,0c0,0-0.1,0-0.1,0c0,0-0.1,0-0.1,0c-0.1,0-0.1,0-0.2,0c0,0,0,0,0,0
		c0,0-0.1,0.1-0.1,0.2c-0.1,0-0.1,0-0.2,0c0,0,0,0.1,0,0.1c0,0-0.1,0.1-0.1,0.1c0,0.1,0,0.1,0.1,0.2c0,0.1,0,0.1,0,0.2
		c0,0.1,0.1,0.1,0.1,0.2c0,0,0,0.1,0,0.1c0,0,0.1,0,0.1,0V10c0,0,0.1,0,0.1,0c0.1,0.1,0.1,0.2,0.3,0.2c0,0,0.1-0.2,0.1-0.2
		c0,0,0,0,0,0c0.1,0.1,0.2,0.3,0.2,0.4c0,0,0,0.1,0,0.1c0.1,0,0.1,0,0.2,0.1c0,0,0.1,0,0.1,0c0,0,0,0.1,0.1,0.1c0,0,0,0,0.1,0v0h0
		c0,0.1,0,0.1,0,0.2c0,0,0,0.1,0,0.1c0,0,0,0,0,0v0c0,0,0.1-0.1,0.1-0.1c0.1,0,0.1,0.2,0.1,0.3h0.1v0.1H13c0,0,0,0.1,0,0.1v0
		c0,0-0.1,0-0.1,0c-0.1-0.1-0.1-0.1-0.2-0.1c0,0,0,0.1,0.1,0.1c0,0.3,0.2,0.2,0.4,0.2c0.1,0,0.1,0.1,0.1,0.1c0,0,0.1-0.1,0.1-0.1
		c0,0,0,0.1,0,0.1c-0.1,0.1,0,0.2,0,0.3c0,0,0,0-0.1,0v0.1h0v0c0,0,0.1-0.1,0.1-0.1h0.2c0,0.1-0.1,0.2-0.1,0.3c0,0,0,0.1,0,0.1
		c-0.1,0.1-0.3,0.2-0.4,0.2c0,0.2-0.2,0.1-0.3,0.1v0.1h0v0h0c0-0.1-0.1-0.2-0.1-0.2c-0.1,0-0.1,0.1-0.2,0c0,0,0,0,0-0.1
		c0,0,0.1-0.1,0.1-0.1c0-0.1-0.1,0-0.2,0c0,0,0-0.1-0.1-0.1c0-0.1,0-0.2-0.1-0.3c-0.1-0.1-0.2,0-0.3-0.1c-0.1-0.1,0-0.2-0.1-0.3
		c0,0-0.1-0.1-0.1-0.1c0,0,0.1,0,0.1-0.1c-0.2,0-0.2-0.1-0.3-0.2c-0.1-0.1-0.2-0.1-0.2-0.3c-0.1,0-0.1,0-0.2,0v-0.1h0c0,0,0,0,0,0
		c0,0,0,0,0,0c-0.1,0-0.1-0.1-0.2-0.1c0,0-0.3,0-0.3,0c0.1,0,0.1,0.2,0.1,0.3c0.1,0.1,0,0.2-0.2,0.2c0-0.1-0.1-0.1-0.1,0
		c0,0,0.1,0.1,0.1,0.1c0,0,0,0.1,0,0.2c0,0.1,0,0.2,0,0.3c0,0,0,0.1,0,0.1c0,0,0,0.1,0.1,0.1c0,0,0,0.1,0,0.1c0,0,0,0.1-0.1,0.1
		c0,0.1,0.1,0.2,0.1,0.3c0,0,0.1,0.2,0.1,0.2c0,0.1-0.1,0.2-0.2,0.1c-0.1,0-0.1-0.1-0.1-0.1c0,0,0,0.1,0,0.1c0,0-0.4,0.1-0.4,0.1v0
		c0,0-0.1,0-0.1,0c0-0.2,0-0.4-0.1-0.6c0-0.1-0.1-0.1-0.1-0.2c0-0.1,0.1-0.2,0.1-0.4c0,0,0-0.1,0-0.1c0,0-0.1,0-0.1,0h0v0
		c0,0,0.1-0.1,0.1-0.1c0,0,0-0.1,0-0.1c0.1,0,0.2-0.1,0.3-0.1v0h0v0c-0.1,0-0.1,0-0.2,0c0-0.1,0-0.2,0-0.3c0-0.1-0.1-0.1-0.2-0.2
		c-0.1,0-0.2-0.1-0.3,0c0,0,0,0,0,0.1c0,0.1,0,0.2,0,0.3c0,0.1-0.1,0.1-0.2,0.1c-0.1,0-0.1,0.2-0.1,0.3H8.8c0,0,0.1,0.3,0,0.3v0
		c-0.1,0-0.2-0.2-0.2-0.3c0,0,0,0,0,0v0c-0.1,0.1,0,0.2,0,0.3c0,0.1,0,0.1,0,0.2H8.5c0,0-0.1-0.1-0.1,0h0c0,0.1,0,0.2,0,0.2
		c-0.1,0-0.3,0-0.2,0.1c0,0,0,0.1,0,0.1c-0.1,0-0.3-0.1-0.4-0.1c0,0-0.1,0-0.1-0.1c0,0-0.1,0-0.1,0c0,0-0.1,0-0.1,0c0,0-0.1,0-0.1,0
		c-0.1,0-0.2-0.2-0.3-0.2c-0.1,0-0.1-0.1-0.2-0.1c0,0,0-0.1,0-0.1c0.1-0.1,0.2-0.2,0.3-0.3c0.1-0.1,0.2-0.2,0.3-0.3
		c0,0,0-0.1,0.1-0.1c0,0,0.1-0.1,0.1-0.1c0,0,0-0.1,0-0.1c0.1-0.1,0.1-0.1,0.2-0.2c0,0,0.1,0,0.1-0.1C8,10.2,8.1,10,8.3,9.8
		c0.1-0.1,0.2-0.1,0.2-0.2c0.1,0,0.1-0.1,0.2-0.1c0,0,0.1-0.1,0.1-0.1c0.1,0,0.1,0,0.2,0c0-0.1,0-0.1,0.1-0.2c0-0.1,0.1-0.1,0.1-0.2
		c0,0,0-0.1-0.1-0.1c0-0.1,0-0.1-0.1-0.1c-0.1,0-0.2,0-0.3,0c0,0-0.1-0.2-0.1-0.2C8.5,8.5,8.4,8.6,8.3,8.6V8.5h0c0,0,0,0.1-0.1,0.1
		C8.1,8.5,8,8.5,7.9,8.5c0,0,0,0.1-0.1,0.1c0,0,0-0.1,0-0.1v0c0,0-0.1,0-0.1,0c0,0-0.1-0.1-0.1-0.1c0,0-0.1,0.1-0.2,0.1
		c0-0.1,0-0.1-0.1-0.1c0,0,0,0.1,0,0.1h0v0c-0.1,0-0.2,0-0.3,0c0,0-0.1,0-0.1,0c-0.1,0-0.2,0-0.2,0c-0.1,0-0.1-0.1-0.1-0.1
		c0,0-0.1,0.1-0.1,0.1c0,0,0,0-0.1,0C6.2,8.5,6.1,8.5,6,8.5c0,0.1-0.1,0-0.2,0c0,0-0.1,0-0.1,0c0,0-0.1-0.1-0.1-0.1c0,0,0-0.1,0-0.1
		c0,0,0-0.1,0-0.1C5.5,8.2,5.5,8.1,5.5,8.1c0-0.1,0-0.1-0.1-0.2c0,0,0-0.1,0-0.2c0,0,0.1,0,0.1,0c0.1,0,0.1,0,0.2,0
		c0.1,0,0.2-0.1,0.4-0.1c0.1,0,0.6-0.1,0.7,0c0,0,0,0,0,0c0.1,0,0.7-0.1,0.7,0.1h0c0.1-0.1,0.1,0,0.2,0C7.9,7.6,8,7.6,8.1,7.6
		c0,0,0,0,0,0h0c0-0.1-0.1-0.1-0.1-0.2c0-0.1,0-0.1,0-0.2C8,7.1,8,7.1,7.9,7C7.8,6.9,7.4,6.5,7.4,6.3c0,0,0,0,0.1,0c0,0,0-0.1,0-0.1
		h0c0,0,0,0.1-0.1,0.1c0-0.1-0.1-0.1-0.2-0.2c0-0.1-0.1-0.2-0.1-0.3C7.1,5.7,7,5.7,7,5.6c0,0,0,0,0,0v0c0,0-0.1,0-0.1,0v0h0v0
		C7,5.4,7.2,5.3,7.4,5.2c0.1,0,0.1-0.1,0.2-0.1c0,0,0.2-0.1,0.3-0.1v0h0c0,0,0,0.1,0,0.1v0h0c0-0.1,0-0.1,0-0.2h0v0
		c0.1,0,0.1,0,0.2,0c0,0,0,0.1,0,0.1h0c0.1-0.2,0.5-0.4,0.5,0c-0.1,0-0.1-0.1-0.2-0.1c0,0.1,0,0.2,0,0.2c0,0,0,0.1,0,0.1
		c0,0,0,0.1,0,0.1c0,0,0,0.1,0,0.1c0,0.1,0.2,0.1,0.2,0.1c0.1,0,0-0.1,0.1-0.1C8.8,5.6,9,5.5,9,5.7h0c-0.1,0-0.1,0-0.1,0.1
		C8.8,5.9,9,6,9.1,6c0,0,0,0,0,0v0.1c0,0-0.1,0-0.1,0c0,0.1-0.1,0.2,0,0.3c0.1,0,0.1,0,0.2,0c0.1,0,0.2,0.3,0.2,0.3c0,0-0.1,0-0.1,0
		c0,0.1,0,0.1,0,0.2h0c0,0,0.2-0.1,0.2-0.1c0,0,0,0.1,0,0.1h0.1c0-0.1,0-0.1,0.1-0.1c0,0.3,0.3,0.2,0.4,0.4c0,0.1,0,0.1,0,0.2h0.1
		c0,0,0.1,0,0.1,0c0-0.1,0-0.2,0-0.3c0-0.1,0.1-0.2,0.1-0.2c0,0,0-0.1,0-0.1c0,0,0,0,0.1,0c0,0,0-0.1,0-0.2c0,0,0.1,0,0.1-0.1
		c0,0,0-0.1,0-0.1c0.1,0,0.1,0,0.1-0.1h-0.1V6.1c0.1,0,0.1-0.1,0.1-0.1c0-0.1,0-0.2,0-0.2c0,0,0-0.1,0-0.1c0,0,0-0.1,0-0.1
		c0-0.1,0.1-0.2,0.1-0.3c0,0,0.1,0,0.1,0C10.8,5,10.9,5,11,4.8c0-0.1-0.1-0.1,0-0.3c0,0,0,0,0,0c0,0,0,0.1,0.1,0.1
		c0-0.1,0-0.1,0-0.2C11,4.4,11,4.4,11,4.2c0,0,0-0.1,0.1-0.1v0C11.1,4.1,11.4,4.1,11.4,4.1L11.4,4.1L11.4,4.1"/>
	<path class="st37" d="M12.3,4.3C12.3,4.4,12.3,4.4,12.3,4.3C12.3,4.4,12.3,4.4,12.3,4.3C12.3,4.4,12.3,4.4,12.3,4.3"/>
	<path class="st37" d="M8.7,5.1c0,0,0.1,0.1,0.1,0.2H8.7C8.7,5.2,8.6,5.1,8.7,5.1"/>
	<path class="st37" d="M12.3,5.1C12.3,5.1,12.3,5.2,12.3,5.1C12.3,5.1,12.3,5.1,12.3,5.1L12.3,5.1"/>
	<path class="st37" d="M12,5.5C12,5.5,12,5.5,12,5.5L12,5.5L12,5.5C11.9,5.5,11.9,5.5,12,5.5L12,5.5"/>
	<path class="st37" d="M12.2,5.5C12.2,5.5,12.2,5.5,12.2,5.5C12.2,5.5,12.2,5.5,12.2,5.5L12.2,5.5"/>
	<path class="st37" d="M11.7,5.6C11.7,5.7,11.7,5.7,11.7,5.6C11.7,5.7,11.7,5.7,11.7,5.6L11.7,5.6C11.7,5.7,11.7,5.7,11.7,5.6
		L11.7,5.6"/>
	<path class="st37" d="M12.1,5.7C12.1,5.7,12.1,5.7,12.1,5.7C12.1,5.8,12.1,5.8,12.1,5.7L12.1,5.7L12.1,5.7
		C12.1,5.8,12.1,5.7,12.1,5.7"/>
	<path class="st37" d="M11.6,6.3C11.7,6.3,11.7,6.3,11.6,6.3L11.6,6.3c0,0.1,0,0.1-0.1,0.1L11.6,6.3C11.6,6.3,11.6,6.3,11.6,6.3"/>
	<path class="st37" d="M11.4,6.5C11.4,6.5,11.4,6.5,11.4,6.5L11.4,6.5C11.4,6.6,11.4,6.5,11.4,6.5"/>
	<path class="st37" d="M11.6,6.6C11.7,6.6,11.7,6.6,11.6,6.6C11.7,6.6,11.7,6.6,11.6,6.6C11.7,6.7,11.7,6.7,11.6,6.6
		C11.7,6.6,11.7,6.6,11.6,6.6"/>
	<path class="st37" d="M11.6,6.6c0,0,0,0.1,0,0.1h0C11.6,6.7,11.6,6.7,11.6,6.6"/>
	<path class="st37" d="M11.5,6.8C11.5,6.8,11.5,6.8,11.5,6.8L11.5,6.8C11.5,6.8,11.5,6.8,11.5,6.8L11.5,6.8L11.5,6.8"/>
	<path class="st37" d="M11.3,6.9C11.3,6.9,11.3,6.9,11.3,6.9L11.3,6.9L11.3,6.9C11.3,6.9,11.3,6.9,11.3,6.9"/>
	<path class="st37" d="M13.8,7.2L13.8,7.2c0,0,0,0.1,0,0.1c0,0,0,0.1,0,0.1C13.7,7.3,13.7,7.2,13.8,7.2C13.7,7.2,13.7,7.2,13.8,7.2"
		/>
	<path class="st37" d="M11.5,9.1c0,0,0.1,0,0.1,0v0c0,0-0.1,0-0.1,0C11.5,9.2,11.5,9.1,11.5,9.1"/>
	<path class="st37" d="M11.5,9.5C11.5,9.5,11.5,9.6,11.5,9.5L11.5,9.5L11.5,9.5L11.5,9.5L11.5,9.5"/>
	<path class="st37" d="M11.8,9.5C11.8,9.6,11.8,9.6,11.8,9.5L11.8,9.5L11.8,9.5"/>
	<path class="st37" d="M15.3,9.8C15.3,9.8,15.3,9.8,15.3,9.8L15.3,9.8"/>
	<path class="st37" d="M15.3,9.8c0,0,0.1,0.1,0.1,0.1v0h0c0,0,0,0,0,0C15.3,9.9,15.2,9.9,15.3,9.8C15.2,9.9,15.2,9.8,15.3,9.8"/>
	<path class="st37" d="M11.7,9.9c0,0,0,0.1,0,0.1h-0.1L11.7,9.9L11.7,9.9C11.7,10,11.7,10,11.7,9.9"/>
	<path class="st37" d="M12.2,10.2C12.2,10.2,12.3,10.3,12.2,10.2l0,0.1h0V10.2"/>
	<path class="st37" d="M12.7,10.4L12.7,10.4c0.1,0,0.1,0.1,0.1,0.1c0,0,0,0.1,0,0.1C12.7,10.5,12.7,10.4,12.7,10.4"/>
	<path class="st37" d="M12.5,10.5C12.6,10.6,12.5,10.6,12.5,10.5L12.5,10.5C12.5,10.5,12.5,10.5,12.5,10.5"/>
	<path class="st37" d="M10.7,11.1c0.1,0,0,0.1,0,0.2h0C10.7,11.3,10.7,11.2,10.7,11.1"/>
</g>
</svg>
